<svg xmlns="http://www.w3.org/2000/svg" width="1200" height="750" viewBox="0 0 1200 750">
  <defs>
    <linearGradient id="bg" x1="0" y1="0" x2="0" y2="1">
      <stop offset="0" stop-color="#0c0c14"/>
      <stop offset="1" stop-color="#050507"/>
    </linearGradient>
    <radialGradient id="glowA" cx="0.5" cy="0.5" r="0.5">
      <stop offset="0" stop-color="#4f46e5" stop-opacity="0.30"/>
      <stop offset="1" stop-color="#4f46e5" stop-opacity="0"/>
    </radialGradient>
    <radialGradient id="glowB" cx="0.5" cy="0.5" r="0.5">
      <stop offset="0" stop-color="#22d3ee" stop-opacity="0.16"/>
      <stop offset="1" stop-color="#22d3ee" stop-opacity="0"/>
    </radialGradient>
    <pattern id="grid" width="48" height="48" patternUnits="userSpaceOnUse">
      <path d="M48 0H0V48" fill="none" stroke="rgba(255,255,255,0.05)" stroke-width="1"/>
    </pattern>
    <linearGradient id="line" x1="0" y1="0" x2="1" y2="0">
      <stop offset="0" stop-color="#818cf8"/>
      <stop offset="1" stop-color="#22d3ee"/>
    </linearGradient>
  </defs>
  <rect width="1200" height="750" fill="url(#bg)"/>
  <rect width="1200" height="750" fill="url(#grid)"/>
  <ellipse cx="880" cy="170" rx="440" ry="300" fill="url(#glowA)"/>
  <ellipse cx="230" cy="630" rx="400" ry="290" fill="url(#glowB)"/>
  <g fill="none" stroke-linecap="round" stroke-linejoin="round">
    
      <path d="M750 320 c-42 -26 -116 -26 -158 0 v182 c42 -26 116 -26 158 0 z" stroke="#818cf8" stroke-width="2.5" opacity="0.75"/>
      <path d="M750 320 c42 -26 116 -26 158 0 v182 c-42 -26 -116 -26 -158 0 z" stroke="#818cf8" stroke-width="2.5" opacity="0.75"/>
      <path d="M750 320 v182" stroke="rgba(255,255,255,0.22)" stroke-width="2"/>
      <path d="M622 360 h84 M622 396 h84 M622 432 h60" stroke="rgba(255,255,255,0.22)" stroke-width="2"/>
      <rect x="866" y="500" width="76" height="58" rx="10" stroke="#22d3ee" stroke-width="2.5" opacity="0.65"/>
      <path d="M882 500 v-18 a22 22 0 0 1 44 0 v18" stroke="#22d3ee" stroke-width="2.5" opacity="0.65"/>
      <circle cx="904" cy="528" r="7" stroke="#22d3ee" stroke-width="2.5" opacity="0.65"/>
  </g>
  <text x="64" y="92" font-family="ui-monospace, 'JetBrains Mono', 'Cascadia Mono', monospace" font-size="21" letter-spacing="7" fill="#9a9aa3">DEARDIARY</text>
  <rect x="64" y="114" width="72" height="3" fill="url(#line)"/>
  <text x="52" y="702" font-family="ui-monospace, monospace" font-size="170" font-weight="600" fill="rgba(255,255,255,0.055)">06</text>
  <rect x="0.5" y="0.5" width="1199" height="749" fill="none" stroke="rgba(255,255,255,0.08)"/>
</svg>
