<svg xmlns="http://www.w3.org/2000/svg" width="1200" height="750" viewBox="0 0 1200 750">
  <defs>
    <linearGradient id="bg" x1="0" y1="0" x2="0" y2="1">
      <stop offset="0" stop-color="#0c0c14"/>
      <stop offset="1" stop-color="#050507"/>
    </linearGradient>
    <radialGradient id="glowA" cx="0.5" cy="0.5" r="0.5">
      <stop offset="0" stop-color="#4f46e5" stop-opacity="0.30"/>
      <stop offset="1" stop-color="#4f46e5" stop-opacity="0"/>
    </radialGradient>
    <radialGradient id="glowB" cx="0.5" cy="0.5" r="0.5">
      <stop offset="0" stop-color="#22d3ee" stop-opacity="0.16"/>
      <stop offset="1" stop-color="#22d3ee" stop-opacity="0"/>
    </radialGradient>
    <pattern id="grid" width="48" height="48" patternUnits="userSpaceOnUse">
      <path d="M48 0H0V48" fill="none" stroke="rgba(255,255,255,0.05)" stroke-width="1"/>
    </pattern>
    <linearGradient id="line" x1="0" y1="0" x2="1" y2="0">
      <stop offset="0" stop-color="#818cf8"/>
      <stop offset="1" stop-color="#22d3ee"/>
    </linearGradient>
  </defs>
  <rect width="1200" height="750" fill="url(#bg)"/>
  <rect width="1200" height="750" fill="url(#grid)"/>
  <ellipse cx="880" cy="170" rx="440" ry="300" fill="url(#glowA)"/>
  <ellipse cx="230" cy="630" rx="400" ry="290" fill="url(#glowB)"/>
  <g fill="none" stroke-linecap="round" stroke-linejoin="round">
    
      <circle cx="720" cy="450" r="84" stroke="#818cf8" stroke-width="2.5" opacity="0.75"/>
      <circle cx="720" cy="450" r="58" stroke="rgba(255,255,255,0.22)" stroke-width="2"/>
      <path d="M804 436 h132" stroke="#818cf8" stroke-width="2.5" opacity="0.75"/>
      <path d="M676 330 q-16 -26 0 -52 M724 330 q-16 -26 0 -52 M772 330 q-16 -26 0 -52" stroke="#22d3ee" stroke-width="2.5" opacity="0.65"/>
      <circle cx="560" cy="580" r="10" stroke="#22d3ee" stroke-width="2.5" opacity="0.65"/>
      <circle cx="720" cy="596" r="10" stroke="#22d3ee" stroke-width="2.5" opacity="0.65"/>
      <circle cx="880" cy="580" r="10" stroke="#22d3ee" stroke-width="2.5" opacity="0.65"/>
      <path d="M570 578 l140 16 M730 596 l140 -18" stroke="rgba(255,255,255,0.22)" stroke-width="2"/>
  </g>
  <text x="64" y="92" font-family="ui-monospace, 'JetBrains Mono', 'Cascadia Mono', monospace" font-size="21" letter-spacing="7" fill="#9a9aa3">NIMONSCOOKED</text>
  <rect x="64" y="114" width="72" height="3" fill="url(#line)"/>
  <text x="52" y="702" font-family="ui-monospace, monospace" font-size="170" font-weight="600" fill="rgba(255,255,255,0.055)">04</text>
  <rect x="0.5" y="0.5" width="1199" height="749" fill="none" stroke="rgba(255,255,255,0.08)"/>
</svg>
